<svg width="79" height="35" viewBox="0 0 79 35" fill="none" xmlns="http://www.w3.org/2000/svg">
<path d="M1.56144 17.3598C1.78412 17.3079 3.99424 16.0368 4.21 15.921L6.18481 14.8189C6.92831 14.421 8.08262 13.7104 8.80177 13.3484L16.7313 8.92404C17.5282 8.4448 18.5966 7.91764 19.3831 7.44256C19.7067 7.24718 22.5159 5.65351 22.7331 5.60293C22.614 5.7654 20.6257 6.91705 20.2799 7.1453C20.1788 7.21199 20.1305 7.25085 20.0329 7.31165L18.297 8.37709C18.115 8.49669 17.9601 8.57383 17.7821 8.68892C17.6112 8.79932 17.4802 8.87893 17.299 8.98658C17.1069 9.10075 16.9901 9.20127 16.7931 9.30727L8.78638 14.2516C8.43941 14.4567 8.13116 14.6573 7.79881 14.8714C7.61659 14.9887 7.47265 15.0563 7.28399 15.1832C7.12447 15.2905 6.89109 15.3943 6.79696 15.5228L11.9094 13.1035C12.0923 13.012 12.2322 12.9672 12.4155 12.8748C13.6841 12.2353 15.2587 11.559 16.5338 10.9309L23.2382 7.76141L19.8706 9.67519C19.2716 9.9967 18.7434 10.2936 18.1547 10.623L12.6321 13.6884C12.1662 13.9698 9.75673 15.2316 9.6443 15.385C9.82957 15.3419 9.90444 15.2925 10.0859 15.2296C10.982 14.9188 12.1713 14.4015 13.0956 14.0601C13.4023 13.9468 13.6574 13.8339 13.9559 13.7263L19.9834 11.3954C20.1343 11.3415 20.2578 11.2879 20.4062 11.2212L23.4679 10.0577L20.8733 11.3208C20.7621 11.3724 20.657 11.436 20.5716 11.4785C20.3723 11.5777 20.1728 11.659 19.9775 11.757C19.782 11.8551 19.5751 11.9356 19.3798 12.0318L15.2463 14.0063C15.1343 14.0642 15.1004 14.0947 14.9775 14.1509C14.8689 14.2006 14.7888 14.2393 14.6657 14.2983L8.20531 17.3905C7.66736 17.6595 5.08718 18.8387 4.76354 19.0464C4.67792 19.1014 4.73092 19.0646 4.68436 19.105C5.00374 19.0784 5.54227 18.8157 5.85377 18.713L7.00909 18.3067C7.42948 18.168 7.74519 18.0294 8.1572 17.8934L15.0965 15.4181C16.108 15.01 17.4814 14.5865 18.5732 14.1645L20.8785 13.3468C21.2989 13.2081 21.6146 13.0694 22.0267 12.9335C22.3178 12.8374 23.0381 12.5421 23.2382 12.5377C23.229 12.5441 23.2135 12.5407 23.209 12.5543L21.5239 13.3033C21.2256 13.4431 20.9472 13.5264 20.6506 13.67C20.3568 13.8122 20.0724 13.9152 19.7944 14.0537L18.0638 14.8031C17.6197 15.0274 16.8316 15.3118 16.3336 15.5529L12.4657 17.242C12.2362 17.3328 9.54334 18.488 9.4147 18.5998C9.68926 18.5998 10.7458 18.2785 11.1139 18.1865L16.1953 16.8384C16.4852 16.7541 16.764 16.7026 17.0384 16.6251L21.2913 15.5047C21.5975 15.4286 21.8125 15.3514 22.117 15.2741L23.0086 15.0636C22.9389 15.1242 22.9574 15.111 22.8657 15.1503L22.3197 15.3391C21.3484 15.6297 19.7509 16.2348 18.7317 16.5733C18.4701 16.6601 18.2863 16.7384 18.0203 16.8262C17.7529 16.9145 17.5027 16.9915 17.2621 17.0784L15.1156 17.8252C12.9803 18.5303 10.7633 19.3546 8.62812 20.0636L6.47545 20.8042C5.49968 21.1945 3.88384 21.6527 2.8608 22.0577C2.49456 22.2026 0.131308 22.9213 0 23.1005C0.945757 22.8802 1.8753 22.6422 2.83858 22.4029C3.75965 22.174 4.70541 21.9137 5.66675 21.6947L14.1716 19.5908C15.1177 19.322 16.0439 19.1402 17.0114 18.8944C18.2418 18.5818 20.0291 18.1007 21.2369 17.8385C21.5787 17.7643 22.4369 17.5032 22.6871 17.4976L18.8354 18.6977C18.5225 18.7944 18.1903 18.8654 17.8707 18.9729C17.7203 19.0235 17.5641 19.0819 17.3868 19.132C17.1895 19.1878 17.0702 19.2083 16.8827 19.2708L11.0777 21.0436C10.3189 21.2342 9.39272 21.5657 8.65082 21.7855L7.66407 22.0847C7.47463 22.1443 7.30955 22.1383 7.21028 22.2738L19.0253 20.4031C19.3638 20.3369 19.658 20.291 20.0038 20.2334L21.9918 19.9252C22.3163 19.8712 22.624 19.7939 23.0086 19.7939C22.999 19.8 22.9829 19.7955 22.9778 19.809C22.9728 19.8226 22.9535 19.8208 22.9464 19.8235L16.6069 21.3372C16.1536 21.4512 15.7447 21.5296 15.3024 21.6402C14.8987 21.7411 14.4066 21.8399 13.9979 21.943L8.84519 23.174C8.39939 23.2854 7.98359 23.366 7.54099 23.4772C7.12413 23.5818 6.68607 23.6962 6.24154 23.7851C5.79801 23.8738 5.36572 24.0115 4.94881 24.0998C4.05281 24.2894 3.2157 24.5044 2.34216 24.7079C2.49548 24.8052 3.33481 24.6527 3.5043 24.63C3.95126 24.5702 4.33337 24.5334 4.76809 24.4701C6.47361 24.2217 8.16698 24.0728 9.87008 23.8774C10.7033 23.7817 11.56 23.6447 12.4041 23.564C13.2708 23.4811 14.0848 23.3749 14.9451 23.2577C16.677 23.0216 18.3213 22.9122 20.0438 22.6616C20.7094 22.5648 22.0153 22.3657 22.6412 22.3657V22.4116C22.2703 22.4116 21.221 22.6321 20.7847 22.7137C19.6 22.9352 18.265 23.2205 17.0864 23.3782C16.4675 23.4611 15.8652 23.6105 15.221 23.7172L9.64861 24.7122C9.35812 24.7698 8.99261 24.8379 8.71248 24.8783C8.39968 24.9232 8.0379 25.0232 7.7614 25.0294C7.87973 25.1909 8.00237 25.1208 8.27462 25.1591C8.48631 25.1888 8.70357 25.2202 8.87737 25.2452C9.10102 25.2774 9.30183 25.3094 9.47737 25.3341C9.81374 25.3815 9.74231 25.3762 9.73621 25.7642C9.73166 26.0531 9.78562 26.1173 9.78097 26.4083C9.77246 26.9361 9.78741 26.7745 11.4813 26.7745C11.4813 28.0325 11.472 29.965 11.8654 31.1667C11.9201 31.3342 12.0196 31.5345 12.0324 31.6886H7.7614V32.9286C9.32235 32.9286 10.803 32.8826 12.3998 32.8826C14.3961 32.8826 30.4452 32.8131 31.1959 32.916C31.768 32.9944 32.8933 32.9286 33.5255 32.9286L37.0159 32.9744C37.4557 32.9734 37.7168 33.0209 38.164 33.0204C38.9373 33.0194 39.7606 33.0058 40.4627 33.0639C41.2153 33.1262 42.0925 33.007 42.7691 33.0997C43.3208 33.1753 43.9829 33.0938 44.5491 33.1107C44.7842 33.1178 44.8315 33.1594 45.0972 33.1598C45.9121 33.1609 46.5864 33.1923 47.3968 33.2022L48.4972 33.25C49.6424 33.2493 50.7724 33.3946 51.8956 33.3879C52.9977 33.3813 54.2039 33.538 55.2942 33.5256L58.6443 33.7117C60.0932 33.8278 61.6042 33.913 63.0516 34.0347C63.9043 34.1064 64.8205 34.1611 65.6937 34.2859C65.8951 34.3147 66.0422 34.332 66.2244 34.3522L69.3279 34.785C70.7536 35.0412 70.3251 35.1236 71.2309 34.7202C71.5046 34.5984 71.749 34.5017 72.0265 34.3677L74.0629 33.419C74.2097 33.3455 74.3116 33.288 74.4601 33.2192C74.7443 33.0875 77.5204 31.8788 77.6599 31.6886H55.3401C55.7081 30.9931 56.0481 30.5415 56.1208 29.6678H57.1771C57.7541 28.5775 57.82 27.8223 57.82 26.499C56.856 26.499 55.8549 26.4071 54.8808 26.4071L54.8861 28.3413C54.8836 28.6829 54.8338 28.6115 54.5135 28.6115V26.4071C53.6491 26.4071 52.7909 26.3153 51.9416 26.3153V27.8308C50.0745 27.8308 48.351 27.7849 46.4765 27.7849V26.1775L45.0987 26.1316C43.1283 26.1328 43.4433 25.6448 43.4929 27.1864C43.5024 27.482 43.4664 27.6549 43.4478 27.8792C43.4298 28.0975 43.4454 28.3857 43.4454 28.6115H43.078V26.0857H37.567C36.9086 26.0857 36.4149 26.1316 35.7759 26.1316C35.3937 25.3352 35.566 25.5159 36.4212 25.4451C36.9619 25.4004 37.6953 25.4451 38.2574 25.4443C38.5676 25.4439 38.7678 25.3959 39.1283 25.3967C40.0344 25.3988 40.9847 25.348 41.8842 25.3965L44.5482 25.4421C44.8984 25.4401 45.0585 25.4908 45.4199 25.4889C46.0211 25.4858 46.6615 25.4692 47.2587 25.4871C48.6981 25.5302 50.2298 25.6335 51.6664 25.6261C52.0277 25.6242 52.1878 25.6749 52.538 25.6729C53.1946 25.6692 53.6778 25.7214 54.3304 25.7176C54.8434 25.7147 57.6676 25.9267 57.7752 25.8191C57.8578 25.7365 57.752 25.1875 57.7084 25.0491C57.6578 24.8884 57.3923 24.6627 57.2614 24.5776C56.4416 24.0446 55.8926 24.1399 54.9712 24.1123C54.6891 24.1039 54.4519 24.0649 54.1001 24.0649V23.6975L55.2021 23.7437C57.2396 23.8537 56.6586 23.5668 56.6726 21.7221C56.678 21.0029 56.3646 20.5559 55.7471 20.3054C55.4564 20.1874 55.2126 20.066 54.8617 19.9967C54.491 19.9233 54.202 19.8857 53.7786 19.8857L53.6384 17.6837C53.6114 17.3472 53.5663 16.997 53.5481 16.6258C53.4613 14.8453 52.2518 15.2001 50.6648 14.8248L47.6967 14.2566C47.1243 14.1604 47.3008 14.2043 47.1847 13.6205C47.0807 13.0973 46.7094 11.1104 46.5252 10.7438C46.2857 10.2672 45.3805 10.2247 44.7852 10.1415L41.6811 9.75532C41.3091 9.70266 40.9401 9.72595 40.5715 9.67087L36.7422 9.4129C36.5481 9.41048 36.3345 9.42529 36.143 9.41494L35.0411 9.36881C34.4856 9.36881 33.1573 9.25024 32.7607 9.33875C32.5997 9.37471 32.4934 9.47471 32.4123 9.58743C32.2129 9.8647 32.379 10.8549 32.3775 11.2057L32.4218 12.9066C32.4289 13.1417 32.4704 13.189 32.4708 13.4546C32.4711 13.6514 32.4619 13.8593 32.4677 14.0547C32.4748 14.2909 32.5152 14.3356 32.5152 14.6043C32.9499 14.3132 33.1181 14.0148 33.7288 13.7971C34.4473 13.5411 36.409 14.0116 37.2395 14.151C37.5098 14.1964 37.8269 14.2716 38.0846 14.3162C38.8576 14.4499 39.971 14.5868 40.6915 14.7864C41.1618 14.9166 41.567 15.386 41.6072 15.9373C41.6516 16.5464 41.6059 17.3298 41.6069 17.9584C41.6075 18.4713 41.8051 19.4089 41.5165 19.8398L39.846 19.1222C39.2149 18.9136 38.5864 18.7696 37.9091 18.671C36.8555 18.5176 35.6706 18.5598 34.6358 18.8375C34.4632 18.8837 34.3645 18.9386 34.2137 19.0124C34.0435 19.0958 33.9444 19.0959 33.8929 19.2887C34.2026 19.1401 35.1119 19.2498 35.4188 19.3243C35.9039 19.4422 36.2723 19.6572 36.5694 19.9648C37.444 20.8701 36.1352 22.4575 37.521 22.4575V20.8042C38.2869 20.8042 39.0543 20.7991 39.8198 20.8017C40.6942 20.8048 40.5062 21.6018 40.5062 22.4575C42.7702 22.4575 44.898 22.5494 47.1195 22.5494C47.7143 22.5494 48.1365 22.5953 48.7268 22.5953C49.2937 22.5953 49.8609 22.593 50.4277 22.5937C50.7278 22.5942 50.8701 22.6433 51.2065 22.6416C51.6011 22.6395 52.513 22.5609 52.8306 22.7167C53.0857 22.8417 53.0898 22.9764 53.0898 23.3301L49.6435 23.286C49.3783 23.2827 49.2974 23.236 49.0035 23.2372C48.5719 23.2389 47.9966 23.2703 47.5811 23.2358L45.5569 23.1934C45.2524 23.1947 45.161 23.1452 44.8707 23.1449C43.8944 23.1435 43.0666 23.1005 42.1136 23.1005C42.1136 23.6101 42.2055 23.9574 42.2055 24.4324L41.5317 23.5905C41.4303 23.4564 41.4151 23.4278 41.1983 23.4187C40.5388 23.3911 39.7976 23.422 39.1285 23.422C37.766 23.422 36.4035 23.422 35.0411 23.422C35.0123 23.0765 34.7394 22.397 34.5982 22.1197C34.4933 21.9137 34.3826 21.7623 34.255 21.5903C33.8229 21.0083 33.0281 20.8344 32.3908 21.1851C32.0063 21.3967 31.746 21.7382 31.5132 22.0986C31.2721 22.4719 31.1189 22.8949 30.9996 23.3301C30.7518 24.2348 30.4969 25.3421 30.4494 26.3161C30.4218 26.8802 30.3567 27.435 30.3567 28.0145L29.8986 27.9601C29.8974 27.4148 29.9319 26.9679 29.9819 26.4917C30.0805 25.5536 30.1534 24.5989 30.3375 23.6784C30.4341 23.1956 30.5301 22.8043 30.6322 22.3657C30.4188 22.3834 30.133 22.5045 29.9076 22.5596C28.4515 22.9149 28.4737 22.8381 28.4737 21.4472V9.87401C29.0361 9.57641 29.6083 9.28408 30.2259 9.05429L31.1779 8.72043C31.4756 8.62576 31.865 8.47839 32.2116 8.42099L33.4337 8.45032C33.6446 8.45032 33.8692 8.44257 34.0782 8.44882C34.3174 8.45598 34.3912 8.49848 34.6726 8.49731L35.9126 8.54324C36.4079 8.54116 36.7403 8.58772 37.201 8.58666C37.478 8.58598 37.5337 8.6337 37.7951 8.63554L39.6312 8.72827C41.5684 8.88581 43.5333 9.0901 45.4262 9.40876C45.6231 9.44186 45.8018 9.47081 45.9783 9.49965C46.2117 9.53784 46.3284 9.59843 46.5684 9.59843C46.3738 9.19295 46.0472 8.86446 45.6485 8.6353C45.3786 8.48013 44.6647 8.12881 44.2721 8.12881V6.56737L43.8128 6.42958C43.8128 5.46514 43.8128 4.5007 43.8128 3.53631C43.8129 3.01723 43.8165 2.63866 43.6441 2.28133C43.341 1.65312 42.5072 2.08604 42.8418 2.85403C42.971 3.15048 42.8943 4.69081 42.8943 5.00588C42.8943 5.97032 42.8943 6.93477 42.8943 7.8992C42.2449 7.84514 42.4351 7.84209 42.4351 6.06219C42.4351 5.39728 42.5189 4.32293 42.3891 3.76591C42.0674 3.76591 41.8128 3.70077 41.5153 3.67531L38.8335 3.37195C37.6237 3.2071 36.4448 3.13199 35.2449 2.96501C34.6355 2.88022 34.072 2.86231 33.4593 2.77587C32.8373 2.68817 32.2784 2.64113 31.6566 2.55788L28.0604 2.15854C28.0604 1.63516 28.1702 0.631519 27.7997 0.21481C27.4598 -0.167492 26.8796 0.192059 26.9729 0.669757C27.0163 0.89205 27.1211 0.916635 27.1687 1.07548C27.2614 1.38484 27.1878 4.92491 27.1878 5.557C26.9332 5.557 26.8825 5.59848 26.6827 5.60293C26.6827 7.11829 26.6292 8.49436 26.637 10.0121C26.6391 10.408 26.5903 10.6471 26.5908 11.0681L26.5449 14.3747H26.1315V5.14367C26.1315 4.4115 26.2146 2.62027 26.0856 2.06668C25.7291 2.06668 25.5256 2.30587 25.2503 2.47134L23.7253 3.4263C23.5854 3.52034 23.4972 3.56327 23.3571 3.65513C22.4775 4.2316 21.5466 4.74845 20.6756 5.33659L19.153 6.29396C19.0294 6.36777 18.9239 6.44932 18.7929 6.53093L16.8694 7.73034C15.828 8.34859 14.8366 9.04281 13.7923 9.65903L5.38227 14.9348C5.11249 15.1035 4.89688 15.2445 4.61853 15.4111L2.7277 16.5973C2.57926 16.6971 2.4843 16.7554 2.33354 16.846C2.18563 16.9349 2.07974 16.998 1.93808 17.0935C1.81359 17.1774 1.63495 17.2595 1.56144 17.3598Z" fill="url(#paint0_linear_11_111)"/>
<path fill-rule="evenodd" clip-rule="evenodd" d="M60.9431 6.33771H46.2928C46.3448 6.53227 48.5311 8.8177 48.681 8.8177H63.423V5.28145C63.691 5.42326 63.922 5.6353 64.1462 5.84413L71.8839 12.2515C72.1314 12.4532 72.3343 12.635 72.5881 12.8332C72.8449 13.0337 73.0464 13.2191 73.2905 13.4167C73.4588 13.5529 74.6132 14.4576 74.7206 14.6043C74.6284 14.7421 74.1855 15.0643 74.0253 15.1948C73.781 15.3937 73.5805 15.5808 73.3284 15.7839L70.1596 18.4016C70.0183 18.5153 69.9404 18.5954 69.8135 18.6985C69.5577 18.9062 69.3319 19.0805 69.0821 19.299L63.423 23.9731C63.423 23.6876 63.4769 20.5806 63.4019 20.458C63.2998 20.2912 62.5079 20.3909 62.2749 20.3909C60.6981 20.3909 59.1213 20.3909 57.5446 20.3909C57.5936 20.5745 57.7917 20.6251 57.9385 20.7317L60.0771 22.2672C60.3503 22.4733 60.6382 22.7096 60.9431 22.8709V29.2086C61.1604 29.1505 61.8594 28.5057 62.077 28.3218C63.3401 27.2543 65.2221 25.6581 66.5003 24.6622L73.416 18.9484C74.2623 18.2877 75.0622 17.5612 75.9003 16.8861C76.1049 16.7212 76.247 16.5912 76.4513 16.4268C76.6545 16.2634 76.7978 16.1202 77.0038 15.9689C77.2124 15.8155 77.3566 15.6759 77.5575 15.5122C77.7548 15.3515 77.9182 15.22 78.1089 15.0533C78.2838 14.9003 78.5622 14.7911 78.6243 14.5584C78.4246 14.505 78.2379 14.2739 78.0729 14.1453L71.9969 9.10741C71.9003 9.02576 71.8183 8.96391 71.7155 8.88362L71.1577 8.43109C69.9435 7.47672 68.8088 6.42874 67.5963 5.47108L64.2756 2.72964C64.072 2.57069 63.926 2.42792 63.7249 2.2699L62.0653 0.898522C61.6752 0.593949 61.3423 0.267355 60.9431 0V6.33771Z" fill="#6DBB6D"/>
<path d="M29.2544 10.9303V13.548C29.2544 13.7938 29.4901 14.0532 29.7137 14.0532C29.8692 14.0532 30.9272 13.6727 31.0914 13.5939C31.2317 13.8035 31.8742 14.6053 32.0099 14.6962C32.0099 13.7619 31.8244 12.2533 31.8275 11.4342C31.8286 11.1495 31.7785 11.0789 31.7788 10.794C31.7798 9.63013 31.7026 9.48677 30.7828 9.88683C30.1424 10.1654 29.2544 10.3182 29.2544 10.9303Z" fill="url(#paint1_linear_11_111)"/>
<path d="M31.0455 16.9465V20.0694C31.0455 20.6055 31.524 20.3065 31.78 20.2069C31.9872 20.1263 32.1937 20.139 32.1937 19.8398V16.5791C32.1937 16.2328 31.7275 16.4472 31.6032 16.4937C31.3681 16.5818 31.0455 16.6323 31.0455 16.9465Z" fill="url(#paint2_linear_11_111)"/>
<path d="M29.1167 18.8754V21.0339C29.1167 21.3209 29.5096 21.0908 29.5974 21.0554C29.73 21.002 29.8515 21.0012 29.8515 20.8501V18.6917C29.8515 18.4278 29.4882 18.6043 29.3896 18.6431C29.2662 18.6916 29.1167 18.7151 29.1167 18.8754Z" fill="url(#paint3_linear_11_111)"/>
<path d="M1.56166 17.3598H1.5155L1.55397 17.4136L1.56166 17.3598Z" fill="url(#paint4_linear_11_111)"/>
<path d="M9.41493 18.5998H9.36877L9.40724 18.6536L9.41493 18.5998Z" fill="url(#paint5_linear_11_111)"/>
<defs>
<linearGradient id="paint0_linear_11_111" x1="9.92767" y1="13.9316" x2="39.5635" y2="32.4501" gradientUnits="userSpaceOnUse">
<stop stop-color="#00020D"/>
<stop offset="1" stop-color="#6DBB6D"/>
</linearGradient>
<linearGradient id="paint1_linear_11_111" x1="30.8273" y1="-11.7679" x2="35.7765" y2="-10.984" gradientUnits="userSpaceOnUse">
<stop stop-color="#00020D"/>
<stop offset="1" stop-color="#6DBB6D"/>
</linearGradient>
<linearGradient id="paint2_linear_11_111" x1="36.9416" y1="-13.8753" x2="40.9211" y2="-13.5271" gradientUnits="userSpaceOnUse">
<stop stop-color="#00020D"/>
<stop offset="1" stop-color="#6DBB6D"/>
</linearGradient>
<linearGradient id="paint3_linear_11_111" x1="38.9291" y1="-11.7652" x2="41.5459" y2="-11.5362" gradientUnits="userSpaceOnUse">
<stop stop-color="#00020D"/>
<stop offset="1" stop-color="#6DBB6D"/>
</linearGradient>
<linearGradient id="paint4_linear_11_111" x1="32.5152" y1="18.2082" x2="32.5675" y2="18.2212" gradientUnits="userSpaceOnUse">
<stop stop-color="#00020D"/>
<stop offset="1" stop-color="#6DBB6D"/>
</linearGradient>
<linearGradient id="paint5_linear_11_111" x1="35.5948" y1="10.8474" x2="35.647" y2="10.8604" gradientUnits="userSpaceOnUse">
<stop stop-color="#00020D"/>
<stop offset="1" stop-color="#6DBB6D"/>
</linearGradient>
</defs>
</svg>
