<?xml version="1.0" standalone="no"?>
<!DOCTYPE svg PUBLIC "-//W3C//DTD SVG 20010904//EN"
 "http://www.w3.org/TR/2001/REC-SVG-20010904/DTD/svg10.dtd">
<svg version="1.0" xmlns="http://www.w3.org/2000/svg"
 width="1264.000000pt" height="1264.000000pt" viewBox="0 0 1264.000000 1264.000000"
 preserveAspectRatio="xMidYMid meet">
<metadata>
Created by potrace 1.14, written by Peter Selinger 2001-2017
</metadata>
<g transform="translate(0.000000,1264.000000) scale(0.100000,-0.100000)"
fill="#000000" stroke="none">
<path d="M4341 9087 c-31 -34 -33 -63 -9 -111 21 -40 22 -51 21 -389 -1 -192
-3 -350 -5 -352 -2 -2 -20 -5 -41 -7 l-37 -2 -1 -66 c-3 -285 -10 -694 -14
-835 -2 -93 -5 -244 -5 -335 l-1 -166 -35 -2 -35 -3 2 963 c2 530 -1 973 -5
986 -13 39 19 56 -414 -216 -149 -95 -276 -172 -281 -172 -4 0 -16 -9 -26 -20
-10 -11 -22 -20 -26 -20 -5 0 -55 -30 -111 -66 -57 -37 -119 -77 -138 -89 -19
-12 -75 -47 -125 -79 -49 -31 -98 -62 -108 -69 -10 -6 -33 -21 -51 -32 -87
-51 -300 -184 -386 -240 -106 -68 -211 -135 -238 -150 -14 -8 -702 -439 -810
-507 -15 -10 -34 -21 -42 -25 -8 -3 -17 -9 -20 -12 -7 -9 -89 -61 -94 -61 -5
0 -71 -42 -91 -58 -5 -4 -46 -29 -90 -56 -44 -27 -110 -69 -147 -93 -37 -24
-70 -43 -73 -43 -3 0 -11 -5 -18 -11 -14 -12 -378 -241 -509 -321 -49 -29 -88
-56 -88 -60 0 -7 119 52 177 88 34 21 120 70 238 134 33 18 89 50 125 70 36
21 94 53 130 72 36 20 81 44 100 54 19 11 37 22 38 27 2 4 7 7 12 7 5 0 43 20
84 45 42 25 81 45 86 45 6 0 10 3 10 8 0 4 28 21 63 37 34 17 64 32 67 35 3 3
19 12 35 21 50 27 148 81 185 102 19 11 55 31 80 45 25 13 59 32 75 42 42 24
144 80 180 98 17 9 32 18 35 21 6 7 29 20 108 62 31 17 75 40 97 53 22 12 67
37 99 54 33 18 64 36 70 41 6 4 51 29 100 56 49 26 110 59 135 74 25 15 53 30
61 34 8 4 29 15 45 25 17 11 100 57 185 104 85 47 169 94 187 104 28 17 194
112 293 167 19 11 64 35 100 55 36 19 80 43 98 54 55 33 35 10 -25 -29 -32
-21 -59 -41 -61 -45 -2 -5 -8 -8 -13 -8 -8 0 -163 -93 -394 -237 -49 -31 -102
-63 -117 -72 -25 -14 -272 -168 -308 -191 -11 -7 -236 -145 -390 -239 -18 -11
-341 -212 -414 -258 -28 -17 -80 -49 -116 -71 -36 -21 -139 -85 -230 -142
-220 -137 -242 -151 -332 -204 -95 -56 -109 -75 -26 -33 35 17 65 31 68 32 3
0 30 12 60 27 52 24 104 49 348 164 53 25 127 61 164 79 36 19 69 31 72 28 3
-4 6 -1 6 5 0 7 5 12 10 12 6 0 54 21 108 46 53 26 133 63 177 84 226 105 323
150 480 225 66 32 156 74 200 95 44 21 130 61 190 90 61 29 137 65 170 80 33
15 123 58 200 95 176 84 237 110 211 90 -11 -8 -23 -15 -27 -15 -3 0 -49 -25
-100 -56 -51 -31 -103 -60 -114 -65 -11 -5 -42 -23 -70 -39 -27 -17 -66 -38
-85 -48 -19 -9 -37 -20 -40 -23 -3 -3 -39 -23 -80 -45 -41 -21 -77 -40 -80
-44 -3 -3 -16 -11 -30 -17 -25 -12 -101 -54 -200 -112 -30 -17 -67 -37 -82
-42 -16 -6 -28 -15 -28 -20 0 -5 -5 -9 -11 -9 -6 0 -66 -31 -133 -68 -66 -38
-157 -88 -201 -112 -44 -24 -97 -54 -117 -67 -21 -12 -40 -23 -42 -23 -2 0
-48 -25 -101 -55 -54 -30 -101 -55 -106 -55 -4 0 -14 -6 -21 -12 -7 -7 -33
-23 -58 -36 -25 -13 -72 -39 -105 -57 -33 -19 -73 -41 -90 -49 -32 -15 -144
-82 -153 -91 -6 -6 124 39 188 65 25 10 104 42 175 70 72 28 139 55 150 59 11
5 36 15 55 21 19 7 49 18 65 25 17 7 68 27 115 45 130 50 212 81 245 95 17 7
48 18 70 25 22 7 45 16 50 20 6 3 51 22 100 40 50 18 101 37 115 43 14 6 27
11 30 12 3 1 14 5 25 10 11 4 43 17 70 27 28 10 59 22 70 27 26 12 189 75 195
77 3 0 19 6 35 13 127 52 398 151 402 147 2 -2 -6 -7 -19 -11 -13 -4 -122 -56
-243 -115 -121 -59 -245 -119 -275 -133 -30 -14 -122 -57 -203 -96 -82 -39
-153 -71 -158 -71 -5 0 -9 -5 -9 -10 0 -6 -3 -9 -7 -8 -7 2 -89 -33 -123 -53
-8 -5 -26 -14 -40 -19 -14 -6 -62 -29 -107 -51 -45 -23 -85 -40 -89 -39 -4 1
-10 -2 -13 -7 -3 -5 -24 -17 -46 -28 -143 -66 -292 -137 -305 -145 -8 -6 -22
-13 -30 -16 -15 -6 -99 -46 -310 -147 -282 -135 -380 -181 -450 -214 -41 -19
-84 -40 -95 -45 -11 -6 -27 -15 -35 -19 -8 -5 -51 -25 -95 -45 -267 -122 -369
-183 -198 -118 38 14 109 39 158 56 50 17 96 35 103 41 6 5 12 7 12 3 0 -3 17
1 37 10 21 8 115 42 208 75 94 33 179 64 190 69 11 5 47 18 80 29 33 11 105
36 160 56 55 20 111 41 125 45 14 4 90 31 170 60 80 29 156 56 170 60 14 5 63
23 110 41 47 17 132 48 190 69 58 21 112 40 120 43 20 8 159 57 305 107 66 23
129 46 140 51 61 25 95 38 95 34 0 -2 32 9 71 26 40 16 79 29 88 29 10 0 22 5
29 12 7 7 12 8 12 4 0 -5 6 -4 13 1 12 11 92 39 92 33 0 -2 19 7 43 19 23 12
42 19 42 15 0 -4 6 -2 13 3 17 14 58 23 51 12 -3 -5 -9 -9 -14 -9 -9 0 -78
-31 -206 -91 -22 -10 -44 -19 -49 -19 -4 0 -53 -21 -109 -46 -56 -25 -116 -52
-133 -60 -18 -8 -50 -22 -70 -31 -21 -10 -40 -18 -43 -18 -9 -3 -64 -26 -107
-46 -66 -29 -124 -55 -163 -71 -105 -44 -150 -64 -195 -84 -125 -57 -260 -114
-270 -114 -6 0 -16 -5 -23 -12 -6 -6 -26 -17 -44 -23 -32 -12 -496 -211 -608
-262 -84 -38 -140 -66 -137 -69 2 -2 55 10 118 27 63 17 166 44 229 60 63 17
140 37 170 45 30 8 107 29 170 45 63 17 122 33 130 35 8 2 49 13 90 25 41 11
82 22 90 24 8 1 35 8 60 15 25 7 53 14 62 16 10 2 27 6 38 9 11 3 30 7 41 10
12 2 36 9 54 15 18 6 43 13 56 16 13 3 35 7 49 10 35 8 43 10 60 17 8 3 29 9
45 13 48 12 243 63 365 95 41 11 82 22 90 24 153 41 241 62 234 55 -8 -7 -149
-56 -149 -52 0 1 -38 -12 -85 -28 -47 -17 -125 -44 -175 -61 -49 -16 -99 -34
-110 -39 -20 -10 -188 -68 -215 -75 -15 -4 -51 -17 -330 -113 -80 -28 -255
-89 -390 -135 -135 -47 -337 -117 -450 -157 -113 -39 -209 -73 -215 -74 -5 -2
-17 -6 -25 -9 -33 -12 -196 -68 -210 -72 -8 -2 -85 -28 -170 -58 -85 -30 -171
-60 -190 -67 -19 -6 -44 -15 -55 -20 -26 -11 -296 -99 -315 -102 -8 -2 -17 -5
-20 -8 -6 -6 -69 -28 -260 -91 -85 -28 -164 -54 -175 -59 -11 -5 -42 -18 -70
-29 -58 -23 -40 -27 28 -7 26 8 47 12 47 10 0 -2 12 1 28 7 15 6 38 12 52 14
14 3 160 39 325 81 165 41 308 77 318 79 10 2 26 6 35 9 9 3 28 8 42 10 14 3
124 30 245 61 121 30 233 57 249 60 16 3 32 8 36 10 3 2 17 6 31 9 13 2 178
43 366 90 188 47 354 88 370 91 39 8 58 13 58 15 0 1 7 3 15 5 8 1 35 8 60 15
25 7 53 14 63 16 10 2 85 19 167 39 82 20 157 38 167 40 10 2 18 4 18 5 0 1 7
3 15 5 8 1 67 16 130 33 63 17 127 33 142 36 15 2 31 7 36 10 5 3 19 7 33 9
13 3 43 10 67 16 24 7 55 14 70 16 30 5 198 48 250 64 17 5 32 6 32 1 0 -4
-10 -10 -22 -13 -13 -2 -131 -38 -263 -80 -213 -66 -307 -95 -340 -103 -5 -1
-46 -13 -90 -27 -68 -22 -102 -32 -180 -53 -5 -2 -113 -35 -240 -74 -126 -39
-237 -73 -245 -75 -8 -2 -60 -18 -115 -35 -136 -42 -178 -55 -265 -80 -41 -12
-154 -47 -250 -77 -96 -30 -213 -66 -260 -79 -103 -29 -114 -33 -108 -39 3 -3
45 1 94 9 134 23 156 26 194 31 19 2 46 7 60 10 14 3 45 8 70 11 48 6 82 11
115 18 11 2 43 7 70 10 45 6 98 15 190 31 17 2 50 8 75 11 25 3 63 9 85 14 22
4 47 8 55 9 8 0 28 2 43 5 70 11 174 29 192 33 11 2 34 5 50 7 40 5 105 15
135 21 14 3 44 8 66 11 23 2 53 7 65 10 21 4 105 17 189 29 14 2 36 6 50 8 14
3 45 8 70 11 25 4 52 9 60 11 8 3 33 7 55 10 22 2 51 7 65 10 14 3 41 7 60 10
59 7 114 16 140 21 55 10 67 12 110 18 65 9 102 16 112 22 4 3 8 1 8 -5 0 -7
-97 -34 -205 -57 -5 -1 -57 -13 -115 -28 -58 -14 -116 -28 -130 -30 -14 -3
-45 -10 -70 -17 -50 -12 -72 -17 -98 -23 -9 -2 -35 -9 -57 -14 -22 -6 -51 -13
-65 -16 -14 -2 -101 -23 -195 -46 -93 -23 -181 -44 -195 -46 -22 -4 -76 -16
-90 -19 -25 -7 -72 -18 -165 -40 -110 -26 -265 -63 -383 -92 -35 -8 -68 -16
-75 -17 -7 -1 -18 -5 -24 -9 -7 -5 -13 -6 -13 -4 0 3 -17 1 -37 -5 -21 -5 -67
-16 -103 -24 -36 -8 -72 -17 -80 -19 -8 -1 -42 -10 -75 -18 -33 -9 -71 -18
-85 -21 -14 -3 -43 -10 -65 -15 -22 -6 -55 -13 -74 -16 -19 -3 -37 -8 -40 -10
-4 -2 -78 -20 -166 -40 -88 -20 -171 -40 -185 -45 -14 -5 -38 -11 -55 -14 -30
-4 -317 -70 -360 -82 -5 -2 -21 -5 -34 -8 -13 -3 -26 -8 -30 -11 -8 -8 129 6
309 31 19 3 51 6 70 8 19 2 55 7 80 10 110 16 127 18 165 21 22 2 40 5 40 5 0
1 14 3 30 5 56 5 150 15 185 20 19 2 60 7 90 10 30 3 69 7 85 9 17 2 62 7 100
10 39 4 81 9 95 11 14 2 43 7 65 9 99 12 132 17 165 21 19 2 58 7 85 10 28 3
70 7 95 11 25 3 68 7 95 9 28 3 60 7 72 9 12 3 49 7 82 11 33 3 70 8 83 11 13
2 44 6 69 9 26 2 60 6 75 9 31 5 88 11 194 22 36 3 79 8 95 10 17 2 53 6 80 8
65 6 142 15 180 20 97 15 266 38 305 42 25 3 52 7 60 9 8 2 53 6 100 9 73 4
78 3 35 -4 -27 -6 -66 -12 -85 -15 -19 -2 -46 -7 -60 -10 -34 -8 -119 -25
-150 -30 -22 -3 -85 -16 -100 -20 -3 0 -27 -5 -55 -10 -27 -4 -54 -9 -60 -11
-5 -1 -26 -5 -45 -8 -19 -4 -59 -11 -89 -17 -30 -6 -64 -12 -75 -14 -66 -8
-186 -26 -207 -31 -61 -12 -193 -37 -319 -59 -47 -9 -97 -18 -110 -20 -33 -7
-67 -13 -110 -20 -19 -3 -46 -8 -60 -10 -14 -3 -38 -8 -55 -10 -30 -5 -107
-19 -155 -28 -14 -3 -41 -8 -60 -11 -19 -3 -109 -19 -200 -36 -190 -34 -238
-42 -262 -45 -10 0 -20 -4 -24 -7 -3 -4 -12 -4 -20 -1 -8 3 -14 0 -14 -6 0 -6
8 -12 18 -12 48 -4 71 -6 117 -13 61 -9 115 -17 135 -21 8 -2 20 -4 27 -4 8
-1 12 -21 13 -58 1 -102 8 -156 21 -163 6 -5 65 -7 131 -6 65 1 119 -1 120 -6
1 -4 3 -61 4 -125 5 -194 15 -338 29 -418 4 -22 9 -49 10 -60 7 -41 24 -101
40 -138 l15 -37 -344 0 -344 0 1 -100 1 -99 445 4 c638 7 3102 7 3251 1 69 -3
343 -8 610 -10 450 -5 651 -8 1175 -21 110 -2 232 -4 270 -4 87 1 103 1 295
-5 85 -3 232 -8 325 -11 192 -6 334 -12 480 -19 55 -3 186 -8 290 -12 105 -3
213 -7 240 -10 28 -2 113 -6 190 -8 77 -3 181 -8 230 -11 50 -3 133 -8 185
-10 98 -6 172 -11 295 -20 75 -6 140 -10 300 -20 55 -4 116 -8 135 -10 19 -2
73 -7 120 -10 84 -6 111 -8 245 -20 124 -12 139 -14 170 -19 17 -3 53 -8 80
-11 64 -7 133 -16 165 -21 51 -9 106 -16 135 -19 17 -1 46 -5 65 -8 34 -6 82
-14 147 -22 18 -3 54 -10 80 -16 126 -28 108 -31 322 68 51 23 95 43 97 43 2
0 39 17 82 38 42 21 80 39 85 40 4 1 58 26 120 56 61 30 169 79 239 110 69 31
168 78 220 104 l93 47 -1782 3 c-981 1 -1783 4 -1783 7 0 2 18 37 39 77 42 80
69 152 75 201 4 38 16 42 105 41 l70 -2 27 57 c14 31 27 61 28 66 2 6 8 28 14
50 19 69 23 97 29 218 5 110 5 117 -13 118 -11 0 -93 3 -184 6 -91 3 -187 6
-215 7 l-50 1 -1 -51 c-1 -29 -4 -59 -7 -68 -4 -9 -3 -16 1 -16 8 0 6 -186 -3
-207 -3 -8 -15 -13 -27 -11 -23 3 -23 5 -24 171 -1 92 -4 171 -8 175 -4 4 -40
8 -79 9 -40 1 -129 5 -199 8 l-128 6 0 -120 c0 -108 -2 -121 -17 -122 -51 -2
-844 7 -853 10 -3 0 -5 57 -5 126 1 69 -2 125 -5 126 -3 0 -52 2 -110 4 -58 2
-162 7 -232 10 -71 4 -128 3 -129 -2 -1 -4 -2 -93 -4 -196 -2 -109 -7 -193
-13 -199 -5 -5 -18 -8 -28 -6 -18 3 -19 17 -21 193 -1 105 -2 195 -2 202 -1 8
-149 11 -586 9 l-584 -2 -16 39 c-11 26 -13 43 -6 50 15 15 125 18 696 20 474
1 1022 -6 1330 -18 61 -2 187 -6 280 -9 94 -3 256 -8 360 -12 105 -3 242 -7
305 -9 63 -1 171 -6 240 -10 69 -4 171 -8 227 -9 115 -3 120 0 109 68 -12 75
-44 114 -126 156 -25 12 -53 26 -63 31 -18 10 -202 24 -358 28 -47 1 -50 5
-40 52 0 3 38 5 84 3 109 -5 238 -5 257 -1 73 16 80 32 74 169 -9 212 -13 239
-38 283 -34 58 -137 119 -236 140 -3 1 -19 4 -36 9 -26 6 -78 11 -150 15 -7 1
-12 16 -12 34 -1 34 -10 181 -16 263 -9 116 -18 221 -20 249 -4 50 -25 111
-46 138 -23 30 -79 66 -110 72 -12 2 -29 6 -38 9 -9 3 -42 8 -72 11 -30 4
-111 17 -180 30 -156 30 -170 33 -196 39 -12 2 -37 7 -55 10 -19 3 -43 7 -54
10 -11 2 -58 11 -105 20 -132 25 -133 25 -141 33 -5 5 -11 26 -14 48 -3 22
-10 60 -15 85 -5 25 -12 56 -14 70 -24 135 -64 297 -82 336 -29 61 -97 82
-349 110 -27 3 -61 7 -75 10 -14 2 -47 7 -75 10 -27 2 -63 6 -80 8 -89 11
-134 17 -165 21 -54 7 -213 19 -535 40 -33 2 -100 7 -150 10 -49 4 -153 8
-230 10 -77 2 -140 4 -140 5 0 0 -84 3 -187 6 -291 9 -294 6 -283 -225 4 -80
9 -193 11 -251 8 -255 13 -352 17 -357 3 -2 36 19 73 47 90 69 130 84 224 83
91 -1 177 -14 435 -63 61 -12 122 -23 138 -26 15 -2 39 -6 55 -9 15 -3 43 -8
62 -11 44 -6 196 -32 230 -39 111 -20 180 -60 215 -124 18 -32 20 -58 22 -231
1 -107 4 -244 6 -304 4 -102 -5 -166 -23 -166 -4 0 -71 27 -148 60 -217 93
-415 136 -617 134 -108 0 -204 -8 -245 -19 -8 -2 -31 -7 -50 -10 -38 -7 -108
-36 -140 -58 -18 -13 -11 -14 67 -14 49 0 100 -3 116 -7 15 -3 39 -8 55 -11
52 -11 134 -60 173 -103 40 -45 56 -100 51 -172 -10 -158 -10 -161 15 -191 26
-30 77 -40 85 -16 2 6 4 64 3 127 l0 115 155 5 c310 10 324 2 322 -185 l-1
-80 222 -2 c201 -2 460 -6 1182 -18 132 -3 305 -5 385 -5 172 1 210 -11 221
-70 4 -19 6 -36 4 -38 -4 -4 -235 -3 -465 3 -91 2 -282 6 -425 8 -143 3 -350
8 -460 12 -110 4 -247 8 -304 9 l-103 2 6 -95 c4 -52 10 -99 12 -103 3 -4 1
-8 -5 -8 -5 0 -14 6 -18 14 -4 7 -22 31 -40 52 -17 22 -40 50 -51 64 l-19 24
-509 1 c-332 0 -509 3 -510 10 -1 30 -40 139 -71 197 -37 71 -90 130 -138 156
-18 9 -57 16 -100 16 -64 1 -76 -2 -123 -33 -52 -33 -147 -142 -135 -155 4 -3
2 -6 -4 -6 -22 0 -104 -258 -128 -400 -3 -19 -8 -48 -11 -65 -16 -89 -30 -259
-38 -438 0 -15 -6 -17 -36 -13 -19 3 -36 5 -36 6 -4 1 8 191 20 305 11 102 18
163 21 185 2 14 7 49 10 79 4 30 9 63 11 75 3 12 7 32 10 46 3 14 14 63 25
109 11 46 18 85 16 87 -2 3 -49 -7 -103 -21 -117 -31 -186 -38 -208 -22 -8 7
-18 26 -22 42 -3 17 -7 475 -8 1018 l-1 988 120 59 c66 32 196 84 288 115
l169 57 206 -6 c114 -3 216 -6 227 -5 11 0 25 0 30 0 6 -1 60 -3 120 -5 61 -3
157 -7 215 -11 58 -3 150 -8 205 -10 188 -9 323 -19 420 -30 17 -2 62 -7 100
-10 39 -3 86 -8 105 -11 78 -12 97 -14 145 -18 82 -8 245 -31 330 -46 28 -5
66 -12 85 -14 54 -9 94 -16 107 -21 38 -13 6 46 -56 103 -40 36 -116 82 -137
82 -8 0 -14 4 -14 9 0 5 -24 15 -52 21 -89 21 -85 14 -84 149 l1 119 -37 12
-38 11 -1 287 c-1 302 -1 301 -18 355 -10 31 -51 81 -51 63 0 -4 -9 -2 -20 4
-18 10 -25 6 -50 -20 -33 -35 -35 -48 -19 -100 8 -23 12 -168 13 -427 l1 -393
-26 0 c-42 0 -52 22 -51 108 0 42 1 177 3 300 2 181 -1 226 -12 237 -8 7 -39
16 -69 19 -30 4 -69 8 -86 11 -18 2 -63 7 -100 10 -38 3 -80 8 -94 10 -44 7
-103 14 -170 21 -36 3 -74 8 -85 10 -10 2 -49 7 -85 10 -36 4 -76 8 -90 9 -14
2 -54 6 -90 9 -36 4 -81 9 -100 11 -19 3 -60 7 -90 10 -30 3 -68 8 -85 11 -28
5 -76 10 -185 19 -25 2 -61 6 -80 8 -19 3 -57 8 -85 12 -27 3 -66 8 -85 11
-19 3 -60 7 -90 10 -30 3 -73 7 -95 10 -22 2 -60 7 -85 9 -75 8 -144 16 -170
20 -14 3 -54 7 -90 10 -36 3 -74 7 -85 10 -11 2 -37 4 -57 4 l-38 1 0 88 c-1
48 -1 96 -1 107 -1 40 -31 115 -52 130 -31 22 -70 18 -96 -8z"/>
<path d="M9748 8608 l-3 -502 -1165 -2 c-641 -1 -1167 -2 -1168 -3 -8 -3 110
-132 234 -258 l131 -133 1186 0 1186 0 -1 276 c0 151 2 278 5 281 6 5 23 -7
117 -87 25 -21 101 -85 170 -142 135 -112 134 -111 230 -190 36 -30 133 -110
215 -178 83 -69 170 -141 194 -160 23 -19 53 -43 64 -53 12 -11 39 -33 61 -50
21 -18 43 -37 50 -42 6 -6 36 -30 66 -55 30 -25 57 -47 60 -50 3 -3 26 -22 52
-43 26 -21 53 -43 60 -50 7 -7 49 -42 93 -77 44 -36 89 -73 100 -82 28 -25 62
-52 170 -138 52 -41 94 -79 95 -83 0 -11 -25 -35 -85 -82 -27 -21 -58 -47 -67
-56 -10 -10 -34 -30 -55 -46 -21 -15 -40 -30 -43 -33 -3 -4 -34 -30 -69 -59
-35 -29 -70 -58 -77 -64 -7 -7 -19 -16 -26 -22 -7 -5 -45 -36 -83 -68 -39 -33
-79 -66 -90 -75 -11 -10 -58 -48 -105 -87 -47 -38 -90 -74 -96 -80 -6 -5 -28
-23 -49 -40 -41 -32 -107 -86 -115 -95 -3 -3 -41 -35 -85 -70 -44 -36 -85 -69
-91 -75 -6 -5 -30 -26 -54 -45 -24 -19 -48 -40 -54 -45 -6 -6 -54 -45 -106
-87 -52 -42 -104 -85 -115 -95 -19 -16 -108 -91 -145 -120 -8 -6 -53 -44 -99
-82 -47 -39 -86 -69 -88 -67 -2 2 -4 127 -4 279 0 250 -1 276 -17 282 -9 3
-53 6 -97 5 -44 -1 -248 -2 -452 -2 -205 -1 -373 -4 -373 -8 0 -3 8 -11 18
-18 17 -12 241 -171 277 -198 11 -8 71 -51 133 -95 l112 -81 0 -504 c0 -277 3
-504 7 -504 9 0 66 44 143 110 141 121 343 291 445 375 22 18 74 60 115 94 81
67 83 69 150 121 59 46 89 71 112 93 10 9 20 17 23 17 3 0 13 8 23 18 23 22
52 46 160 134 48 39 89 74 92 77 3 4 25 22 50 41 57 45 89 70 112 93 10 9 22
17 27 17 5 0 11 4 13 9 2 5 57 53 124 108 155 128 145 119 175 145 15 13 44
37 65 53 21 17 42 35 48 40 6 6 34 28 61 50 28 22 52 42 55 45 3 3 30 25 60
50 30 25 57 47 60 50 3 4 14 13 26 21 12 8 45 35 75 62 30 26 60 52 67 58 8 6
57 47 110 90 54 44 111 92 127 107 17 15 45 38 64 52 18 13 43 33 55 45 28 25
99 83 140 113 44 33 50 47 23 65 -12 8 -35 27 -52 41 -16 15 -61 53 -100 84
-38 31 -72 59 -75 62 -9 9 -75 64 -120 100 -24 19 -48 40 -54 45 -12 11 -232
193 -254 210 -7 5 -21 17 -30 25 -9 9 -42 36 -72 60 -30 25 -61 50 -68 57 -7
7 -34 29 -60 50 -26 21 -49 40 -52 44 -3 3 -39 32 -80 64 -41 33 -77 62 -80
65 -3 3 -27 23 -55 45 -27 22 -56 45 -63 52 -8 8 -30 26 -50 41 -21 15 -42 32
-48 37 -6 6 -35 30 -64 55 -29 25 -58 50 -64 55 -12 12 -284 237 -361 299 -27
22 -52 43 -55 46 -3 3 -30 25 -60 50 -30 25 -64 52 -75 62 -11 9 -78 65 -150
123 -71 59 -150 124 -175 145 -25 21 -61 51 -80 66 -19 16 -46 38 -59 49 -14
11 -41 34 -60 51 -90 77 -274 224 -282 224 -5 0 -10 -226 -11 -502z"/>
<path d="M4990 7563 c-8 -3 -49 -18 -90 -35 -41 -17 -79 -31 -85 -33 -35 -8
-86 -39 -109 -65 l-26 -31 3 -190 c1 -104 -1 -189 -4 -189 -3 0 -2 -26 3 -57
9 -56 30 -84 66 -90 18 -2 114 27 130 39 6 6 12 8 12 4 0 -3 19 2 42 11 41 16
41 16 60 -8 11 -13 38 -46 61 -73 23 -27 45 -53 49 -60 9 -14 19 -3 19 20 0
30 -10 193 -16 259 -3 33 -7 107 -10 165 -3 58 -8 147 -10 199 -7 126 -28 157
-95 134z"/>
<path d="M5045 6478 c-27 -11 -56 -25 -64 -33 -11 -11 -14 -64 -13 -272 0
-324 -1 -301 21 -308 22 -7 142 31 153 48 10 16 10 577 1 578 -33 6 -55 3 -98
-13z"/>
<path d="M255 6350 c-3 -6 1 -7 9 -4 18 7 21 14 7 14 -6 0 -13 -4 -16 -10z"/>
<path d="M4693 6134 c-35 -18 -35 -15 -35 -159 0 -234 1 -245 21 -245 11 0 23
5 26 10 3 6 14 10 23 10 45 1 47 10 48 197 1 98 -1 184 -4 191 -6 17 -40 15
-79 -4z"/>
</g>
</svg>
